<svg xmlns="http://www.w3.org/2000/svg" width="1200" height="800" viewBox="0 0 1200 800">
  <rect width="1200" height="800" fill="#f6f7f9"/>
  <rect x="160" y="90" width="880" height="620" rx="20" fill="#ffffff" stroke="#d9dde5" stroke-width="4"/>
  <rect x="220" y="160" width="520" height="24" rx="12" fill="#111827" opacity="0.15"/>
  <rect x="220" y="210" width="760" height="16" rx="8" fill="#111827" opacity="0.10"/>
  <rect x="220" y="246" width="720" height="16" rx="8" fill="#111827" opacity="0.10"/>
  <rect x="220" y="282" width="680" height="16" rx="8" fill="#111827" opacity="0.10"/>
  <rect x="220" y="330" width="760" height="16" rx="8" fill="#111827" opacity="0.10"/>
  <rect x="220" y="366" width="700" height="16" rx="8" fill="#111827" opacity="0.10"/>
  <rect x="220" y="402" width="740" height="16" rx="8" fill="#111827" opacity="0.10"/>
  <rect x="220" y="450" width="560" height="16" rx="8" fill="#111827" opacity="0.10"/>
  <rect x="220" y="486" width="760" height="16" rx="8" fill="#111827" opacity="0.10"/>
  <rect x="220" y="522" width="660" height="16" rx="8" fill="#111827" opacity="0.10"/>
  <rect x="220" y="600" width="240" height="56" rx="16" fill="#111827" opacity="0.08"/>
  <text x="600" y="740" font-family="ui-sans-serif, system-ui" font-size="18" text-anchor="middle" fill="#6b7280">Mock Document Preview</text>
</svg>