<svg xmlns="http://www.w3.org/2000/svg" width="1200" height="800" viewBox="0 0 1200 800">
  <defs>
    <linearGradient id="g" x1="0" y1="0" x2="1" y2="1">
      <stop offset="0" stop-color="#fef3c7"/>
      <stop offset="0.5" stop-color="#e0f2fe"/>
      <stop offset="1" stop-color="#dcfce7"/>
    </linearGradient>
  </defs>
  <rect width="1200" height="800" fill="url(#g)"/>
  <rect x="120" y="110" width="960" height="580" rx="24" fill="#ffffff" stroke="#d9dde5" stroke-width="4"/>
  <g opacity="0.85">
    <rect x="180" y="170" width="400" height="260" rx="18" fill="#e5e7eb"/>
    <path d="M210 390 L310 280 L390 340 L450 300 L560 420 L210 420 Z" fill="#9ca3af"/>
    <circle cx="520" cy="230" r="32" fill="#9ca3af"/>
    <rect x="610" y="170" width="410" height="24" rx="12" fill="#111827" opacity="0.12"/>
    <rect x="610" y="214" width="360" height="16" rx="8" fill="#111827" opacity="0.10"/>
    <rect x="610" y="246" width="320" height="16" rx="8" fill="#111827" opacity="0.10"/>
    <rect x="610" y="278" width="280" height="16" rx="8" fill="#111827" opacity="0.10"/>
    <rect x="610" y="330" width="200" height="120" rx="18" fill="#ecfccb"/>
    <rect x="830" y="330" width="190" height="120" rx="18" fill="#cffafe"/>
  </g>
  <text x="600" y="740" text-anchor="middle" font-family="ui-sans-serif, system-ui" font-size="20" fill="#6b7280">Mock site photo (hard-coded)</text>
</svg>